<?xml version="1.0" encoding="UTF-8"?>
<svg xmlns="http://www.w3.org/2000/svg" id="Layer_1" data-name="Layer 1" viewBox="0 0 24 24">
  <path fill="#c50405" d="M13.463,12.39l1.296,3.369-3.369-1.296c-.392-.15-.702-.461-.853-.854l-1.296-3.368,3.368,1.295c.393,.151,.703,.462,.854,.853Zm-.463-10.342V1c0-.552-.447-1-1-1s-1,.448-1,1v1.048c.33-.03,.663-.048,1-.048s.67,.018,1,.048Zm8,11.952h1.949c-.478,5.268-4.681,9.472-9.949,9.949v-1.949c0-.553-.447-1-1-1s-1,.447-1,1v1.949c-5.268-.478-9.472-4.681-9.949-9.949h1.949c.553,0,1-.447,1-1s-.447-1-1-1H1.051C1.528,6.732,5.732,2.525,11,2.048v1.952c0,.552,.447,1,1,1s1-.448,1-1v-1.952c5.268,.477,9.472,4.684,9.949,9.952h-1.949c-.553,0-1,.448-1,1s.447,1,1,1Zm-3.566,3.141l-2.104-5.468c-.353-.918-1.082-1.648-2.002-2.002l-5.469-2.104c-.369-.141-.786-.053-1.066,.226-.279,.279-.368,.697-.227,1.066l2.104,5.468c.354,.92,1.083,1.649,2.002,2.003l5.469,2.104c.117,.045,.238,.066,.359,.066,.261,0,.516-.102,.707-.293,.279-.279,.368-.697,.227-1.066Z"/>
</svg>
