<?xml version="1.0" encoding="UTF-8"?>
<svg xmlns="http://www.w3.org/2000/svg" id="Layer_1" data-name="Layer 1" viewBox="0 0 24 24">
  <path fill = "#c50405" d="M9.575,12.309c3.61-.021,5.555-1.971,5.622-5.671-.061-3.56-2.109-5.614-5.635-5.637-3.561,.023-5.62,2.181-5.62,5.637,0,3.608,2.062,5.651,5.633,5.672Zm-.013-9.309c2.438,.016,3.593,1.183,3.635,3.636-.047,2.559-1.134,3.657-3.622,3.672-2.494-.015-3.582-1.108-3.633-3.654,.05-2.511,1.171-3.639,3.62-3.654Z"/>
  <path fill = "#c50405" d="M9.564,13.661c-5.328,.033-8.194,2.91-8.291,8.321-.01,.552,.43,1.008,.982,1.018,.543-.023,1.008-.431,1.018-.982,.076-4.311,2.079-6.33,6.29-6.356,4.17,.026,6.231,2.105,6.305,6.356,.01,.546,.455,.982,1,.982h.018c.552-.01,.992-.465,.982-1.018-.092-5.332-3.036-8.287-8.304-8.321Z"/>
  <path fill = "#c50405" d="M21.728,11.702h-1.762v-1.762c0-.552-.447-1-1-1s-1,.448-1,1v1.762h-1.761c-.553,0-1,.448-1,1s.447,1,1,1h1.761v1.762c0,.553,.447,1,1,1s1-.447,1-1v-1.762h1.762c.553,0,1-.447,1-1s-.447-1-1-1Z"/>
</svg>
