<?xml version="1.0" encoding="UTF-8"?>
<svg version="1.1" xmlns="http://www.w3.org/2000/svg" width="900" height="900">
<path d="M0 0 C297 0 594 0 900 0 C900 297 900 594 900 900 C603 900 306 900 0 900 C0 603 0 306 0 0 Z " fill="#FCFDFE" transform="translate(0,0)"/>
<path d="M0 0 C2.98894512 -0.08083692 5.9770527 -0.13079199 8.96679688 -0.171875 C9.92432861 -0.1934668 10.88186035 -0.21505859 11.8684082 -0.23730469 C18.83397781 -0.26830782 24.77490578 1.03252544 31.40429688 3.078125 C33.0070304 3.47972179 34.61100978 3.87641746 36.21679688 4.265625 C56.86647941 10.59163886 71.98042199 26.91213276 82.40429688 45.078125 C82.80519531 45.74199219 83.20609375 46.40585938 83.61914062 47.08984375 C86.13932262 51.59378346 87.58755316 56.47701265 89.09179688 61.390625 C89.41410278 62.42171387 89.41410278 62.42171387 89.74291992 63.47363281 C92.80592678 73.97187143 92.55524122 84.88003326 92.56251526 95.72624207 C92.56709028 97.18354196 92.57209165 98.64084056 92.57747883 100.09813768 C92.59096242 104.07523443 92.59844966 108.05232271 92.60490549 112.02943623 C92.6129528 116.32854324 92.62663548 120.62763287 92.63961792 124.92672729 C92.66131957 132.3661208 92.67948695 139.80551612 92.69522285 147.24492455 C92.71797921 158.00093103 92.74611389 168.75691821 92.77554213 179.51290826 C92.82314756 196.96570959 92.86643074 214.41851885 92.90698242 231.87133789 C92.94637329 248.8205629 92.98780807 265.76978089 93.03198242 282.71899414 C93.03470669 283.76453963 93.03743097 284.81008512 93.04023779 285.88731381 C93.05391786 291.13274592 93.06763802 296.37817794 93.0813781 301.6236099 C93.19523208 345.10843361 93.30206581 388.59327252 93.40429688 432.078125 C96.5960578 428.91572918 99.78190498 425.74743741 102.96679688 422.578125 C103.86205078 421.69125 104.75730469 420.804375 105.6796875 419.890625 C110.30298232 415.28426532 114.79916754 410.63608091 119.03806907 405.671992 C120.6680819 403.77038844 122.38575849 401.98232982 124.16479492 400.2199707 C124.81204025 399.57602859 125.45928558 398.93208649 126.12614441 398.26863098 C127.13588066 397.27134224 127.13588066 397.27134224 128.16601562 396.25390625 C128.87909378 395.54461472 129.59217194 394.83532318 130.32685852 394.10453796 C132.57939788 391.86409419 134.83517168 389.62695289 137.09179688 387.390625 C140.07778684 384.43130416 143.06039559 381.46863449 146.04101562 378.50390625 C146.72024582 377.8329744 147.39947601 377.16204254 148.09928894 376.47077942 C150.8178996 373.76624893 153.36239186 371.13131567 155.73950195 368.11401367 C156.28888428 367.44217041 156.8382666 366.77032715 157.40429688 366.078125 C158.06429687 366.078125 158.72429687 366.078125 159.40429688 366.078125 C159.65617264 365.50060486 159.9080484 364.92308472 160.16755676 364.32806396 C161.56175899 361.79166212 163.13519342 360.11365469 165.19213867 358.07910156 C165.97022385 357.30439514 166.74830902 356.52968872 167.54997253 355.73150635 C168.39264175 354.90229675 169.23531097 354.07308716 170.10351562 353.21875 C170.97192581 352.35554138 171.840336 351.49233276 172.73506165 350.60296631 C175.51594272 347.8399035 178.30339005 345.08359126 181.09179688 342.328125 C183.86152157 339.5861289 186.629741 336.84265665 189.39497375 334.09613037 C191.11513777 332.388098 192.83796748 330.68274461 194.56388855 328.98052979 C198.78777974 324.79138825 202.81930631 320.52483275 206.69654846 316.01419067 C209.69411449 312.61586535 212.91544216 309.44455454 216.13085938 306.25390625 C216.84156586 305.54461472 217.55227234 304.83532318 218.28451538 304.10453796 C220.53041165 301.86418015 222.77977315 299.62733988 225.02929688 297.390625 C226.54515524 295.8797914 228.06078222 294.3687256 229.57617188 292.85742188 C232.35550642 290.08620868 235.13614804 287.31632245 237.91845703 284.5480957 C238.5171611 283.95208054 239.11586517 283.35606537 239.73271179 282.74198914 C241.2340236 281.2476118 242.73598864 279.7538908 244.23803711 278.26025391 C246.52589097 275.95564016 248.68057174 273.56425858 250.84179688 271.140625 C281.73017629 237.15561036 281.73017629 237.15561036 300.96679688 227.33203125 C303.44986438 226.09218153 303.44986438 226.09218153 305.91210938 224.546875 C322.35034498 214.8591374 345.27613428 215.07499527 363.40429688 219.078125 C384.97905183 225.6196697 401.3613422 239.7420423 412.40429688 259.078125 C414.00117325 262.35495225 415.23494373 265.63139763 416.40429688 269.078125 C416.80116699 270.14909424 416.80116699 270.14909424 417.20605469 271.24169922 C419.69098525 278.49488334 419.85308476 285.33657517 419.77929688 292.953125 C419.79089844 294.14292969 419.8025 295.33273437 419.81445312 296.55859375 C419.74890876 316.54962391 411.71025187 337.05852429 398.40429688 352.078125 C396.62745665 353.71684949 394.81998724 355.2603864 392.91992188 356.75390625 C391.13783328 358.19440524 391.13783328 358.19440524 389.40429688 361.078125 C388.74429687 361.078125 388.08429688 361.078125 387.40429688 361.078125 C387.06398438 361.9134375 387.06398438 361.9134375 386.71679688 362.765625 C383.52323019 368.39238535 377.6436349 372.64298877 372.86523438 376.97265625 C372.3625 377.43027344 371.85976563 377.88789063 371.34179688 378.359375 C370.89707031 378.76220703 370.45234375 379.16503906 369.99414062 379.58007812 C367.74809888 381.69643441 365.5831438 383.89306934 363.40429688 386.078125 C362.89602922 386.58745323 362.38776157 387.09678146 361.86409187 387.62154388 C360.10846648 389.3809319 358.35317487 391.14065252 356.59790039 392.90039062 C349.83913968 399.67549938 343.07782534 406.44805384 336.31506443 413.21916962 C332.22946773 417.30999316 328.14481455 421.40174987 324.06225586 425.49560547 C320.10351274 429.46522909 316.14231782 433.43239092 312.17942619 437.39787292 C310.67351901 438.90562269 309.16848983 440.41424994 307.66436958 441.92378235 C305.55861081 444.03682183 303.44972099 446.14668894 301.34008789 448.25585938 C300.72431381 448.87522873 300.10853973 449.49459808 299.47410583 450.13273621 C295.93383989 453.6646344 292.29470968 456.93487481 288.40429688 460.078125 C289.06005935 464.28769701 291.35990816 467.62691026 293.52929688 471.203125 C294.44193844 472.73106471 295.35331369 474.25976124 296.26367188 475.7890625 C296.76447266 476.62920898 297.26527344 477.46935547 297.78125 478.33496094 C300.82248182 483.47504528 303.79823685 488.65298963 306.77929688 493.828125 C307.42543945 494.94872314 308.07158203 496.06932129 308.73730469 497.22387695 C312.12841603 503.10987735 315.50547478 509.0035613 318.86572266 514.90722656 C324.50148189 524.80825297 330.24135472 534.64552201 336.01449585 544.46679688 C341.07407684 553.07594891 346.07911681 561.71346475 351.01538086 570.39404297 C355.95458313 579.06994724 360.99538063 587.68580416 366.03320312 596.3046875 C369.44507814 602.14289168 372.83368186 607.9943238 376.21655273 613.84936523 C379.36061382 619.28670092 382.52614475 624.71121875 385.69726562 630.1328125 C390.50837212 638.35990719 395.29822761 646.59303734 399.92993164 654.92260742 C402.74784421 659.96821595 405.67323222 664.94661972 408.60961914 669.92407227 C421.83241483 692.38040164 431.54141158 711.24363875 431.65429688 737.828125 C431.68523437 739.62636719 431.68523437 739.62636719 431.71679688 741.4609375 C431.81259355 763.54207023 422.18166728 782.73863677 407.09570312 798.48828125 C392.57793729 812.38624099 372.53206315 820.75911733 352.46679688 820.328125 C351.41065186 820.31426758 350.35450684 820.30041016 349.26635742 820.28613281 C346.3113709 820.23771662 343.35840275 820.16393781 340.40429688 820.078125 C339.16164063 820.0471875 337.91898438 820.01625 336.63867188 819.984375 C315.10153795 818.83265661 295.7469526 806.41681275 281.18945312 791.1484375 C277.61673952 787.00502785 274.47967915 782.59835668 271.40429688 778.078125 C271.0365918 777.53881348 270.66888672 776.99950195 270.29003906 776.44384766 C265.42059032 769.2477921 261.2513863 761.97009993 257.45898438 754.140625 C254.92830369 749.03263902 252.09542218 744.09511874 249.27929688 739.140625 C248.7245166 738.16432129 248.16973633 737.18801758 247.59814453 736.18212891 C245.86947111 733.14596414 244.1374963 730.11170814 242.40429688 727.078125 C229.49811225 704.48869683 229.49811225 704.48869683 224.01757812 693.21484375 C221.68250012 688.6747284 218.98392593 684.38837051 216.27148438 680.06640625 C214.59757107 677.38744459 212.97241731 674.69512091 211.40429688 671.953125 C211.01242187 671.26992188 210.62054688 670.58671875 210.21679688 669.8828125 C209.40429688 668.078125 209.40429688 668.078125 209.40429688 665.078125 C208.74429687 665.078125 208.08429688 665.078125 207.40429688 665.078125 C206.96859375 664.18351563 206.53289062 663.28890625 206.08398438 662.3671875 C202.91335122 655.91028318 199.63954335 649.62294335 195.86523438 643.4921875 C193.21438102 639.11190041 190.82491107 634.58843398 188.40429688 630.078125 C184.06604528 622.00695923 179.71525465 613.942774 175.34179688 605.890625 C174.84728027 604.97627686 174.35276367 604.06192871 173.84326172 603.11987305 C170.51836333 597.00807324 167.03053247 591.0159755 163.40429688 585.078125 C158.35003415 589.30687033 153.62993655 593.72985938 149.00195312 598.41796875 C148.32055771 599.10315079 147.63916229 599.78833282 146.93711853 600.49427795 C144.05261703 603.39496145 141.17414322 606.30159883 138.29516602 609.20776367 C136.17871141 611.34244497 134.05915062 613.47400828 131.93945312 615.60546875 C131.30274185 616.25047836 130.66603058 616.89548798 130.01002502 617.56004333 C124.84096316 622.75675783 119.55317299 627.7565301 113.64552307 632.11210632 C103.83696444 639.38110474 93.86022878 647.28062383 91.77379608 659.93576431 C90.55691912 670.5478407 91.04157055 681.26439728 91.53631592 691.90899658 C91.73248859 696.55492962 91.81538563 701.20247544 91.90039062 705.8515625 C91.93459307 707.67417039 91.96887377 709.49677681 92.00323486 711.31938171 C92.02790707 712.6527485 92.02790707 712.6527485 92.0530777 714.01305199 C92.10687426 716.65281656 92.17507553 719.29188188 92.24627686 721.93122864 C92.93252752 749.51935401 87.48150899 774.04600423 68.40429688 795.078125 C58.2540296 805.64729219 46.45516305 812.88159964 32.40429688 817.078125 C31.2725 817.449375 30.14070313 817.820625 28.97460938 818.203125 C6.82892661 824.72455305 -16.82233962 821.86575329 -37.20922852 811.22802734 C-42.85791963 808.10315779 -47.84486024 804.4573033 -52.59570312 800.078125 C-53.43617188 799.31757812 -54.27664062 798.55703125 -55.14257812 797.7734375 C-61.3913486 791.84657338 -66.18287478 785.45922353 -70.59570312 778.078125 C-71.30339844 776.91410156 -71.30339844 776.91410156 -72.02539062 775.7265625 C-79.3802532 762.43299101 -81.75394419 746.89109345 -81.72433758 731.92278385 C-81.72609062 730.80179711 -81.72784365 729.68081036 -81.72964981 728.52585432 C-81.73431653 724.75453372 -81.73184255 720.98325155 -81.72941589 717.21192932 C-81.73073158 714.48667214 -81.73354412 711.76141696 -81.73628122 709.03616089 C-81.74143378 703.1029372 -81.74285266 697.16972167 -81.7418251 691.23649597 C-81.74030075 682.41315062 -81.74446073 673.58981429 -81.74969973 664.76647069 C-81.75937508 648.08956975 -81.76218406 631.41267187 -81.76275679 614.73576844 C-81.76321626 601.85468247 -81.76527425 588.97359771 -81.76845741 576.09251213 C-81.76935496 572.38514628 -81.77024477 568.67778043 -81.77113229 564.97041458 C-81.77135334 564.04874969 -81.77157439 563.1270848 -81.77180213 562.17749067 C-81.77795735 536.24831209 -81.78190261 510.31913392 -81.78145885 484.38995457 C-81.78144328 483.41216668 -81.7814277 482.4343788 -81.78141165 481.42696098 C-81.78132854 476.47110854 -81.7812295 471.5152561 -81.78112694 466.55940367 C-81.78110699 465.57515314 -81.78108705 464.59090262 -81.7810665 463.57682632 C-81.78102606 461.58642969 -81.78098426 459.59603306 -81.78094111 457.60563643 C-81.78032858 426.64960253 -81.78783042 395.69357959 -81.80151367 364.73754883 C-81.8168807 329.95791965 -81.82547948 295.17829768 -81.82455045 260.39866489 C-81.82447582 256.68846985 -81.82442711 252.9782748 -81.82439613 249.26807976 C-81.82438448 248.35453841 -81.82437282 247.44099706 -81.82436082 246.49977264 C-81.82433007 231.80916017 -81.8307115 217.11855722 -81.8393284 202.42794758 C-81.84781342 187.65634507 -81.84878821 172.88475647 -81.84221908 158.11315287 C-81.83852881 149.34263691 -81.84034009 140.57216324 -81.85016142 131.80165178 C-81.85617429 125.93529804 -81.85485144 120.06897484 -81.84769092 114.20262248 C-81.84382035 110.86523337 -81.84411903 107.52799226 -81.85114827 104.19059855 C-81.91242128 73.0275089 -78.32396479 46.73319061 -55.97070312 22.953125 C-47.58504856 14.85129259 -37.6451585 8.79602351 -26.59570312 5.078125 C-25.65210938 4.71976563 -24.70851562 4.36140625 -23.73632812 3.9921875 C-15.69052105 1.05317507 -8.51171432 0.25618403 0 0 Z " fill="#1B2E2A" transform="translate(274.595703125,39.921875)"/>
<path d="M0 0 C2.8125 2.0625 2.8125 2.0625 5 4 C5.825 4.391875 6.65 4.78375 7.5 5.1875 C12.79298358 9.0249131 15.28680505 15.85850204 17 22 C17.68553708 29.67445403 17.87643167 37.18282706 14 44 C11.3125 45 11.3125 45 9 45 C9.1546875 46.051875 9.1546875 46.051875 9.3125 47.125 C8.84487829 51.42711972 7.08278389 52.98727938 4 56 C2.68 56 1.36 56 0 56 C0 56.66 0 57.32 0 58 C-0.99 58 -1.98 58 -3 58 C-3.33 58.99 -3.66 59.98 -4 61 C-7.01892589 62.00630863 -9.06296176 62.12898 -12.21875 62.1328125 C-13.23324219 62.13410156 -14.24773438 62.13539063 -15.29296875 62.13671875 C-16.35128906 62.13285156 -17.40960937 62.12898437 -18.5 62.125 C-20.08748047 62.13080078 -20.08748047 62.13080078 -21.70703125 62.13671875 C-22.72152344 62.13542969 -23.73601563 62.13414062 -24.78125 62.1328125 C-25.71001953 62.13168457 -26.63878906 62.13055664 -27.59570312 62.12939453 C-30 62 -30 62 -33 61 C-33.33 60.34 -33.66 59.68 -34 59 C-34.70125 58.773125 -35.4025 58.54625 -36.125 58.3125 C-42.70223562 55.30984896 -46.97706773 49.39466442 -50 43 C-51.85300455 34.26265404 -52.26172771 24.41182411 -49 16 C-48.62875 14.865625 -48.2575 13.73125 -47.875 12.5625 C-44.79362967 5.68748279 -38.63807103 0.82797861 -31.95703125 -2.30859375 C-21.7718525 -5.90695032 -9.38523376 -5.33956018 0 0 Z " fill="#DE011B" transform="translate(638,745)"/>
<path d="M0 0 C8.81406461 5.56063782 13.60781411 12.36171153 16.0625 22.5 C17.32242657 30.3193381 14.93181521 37.24806139 10.5546875 43.734375 C5.85524131 49.54857354 0.24825514 53.38949354 -7 55.3125 C-7.969375 55.374375 -8.93875 55.43625 -9.9375 55.5 C-11.7628125 55.6546875 -11.7628125 55.6546875 -13.625 55.8125 C-20.1866778 55.71174487 -27.08791863 53.22229769 -32.3125 49.25 C-39.69329518 41.51773838 -42.50685407 33.4854922 -42.3125 22.8203125 C-41.45806108 15.2549679 -37.51646622 9.09833422 -31.9296875 4.0390625 C-22.3566625 -3.35656858 -11.16463296 -5.59765251 0 0 Z " fill="#F9FAFB" transform="translate(628.9375,308.5)"/>
<path d="M0 0 C5.73940844 4.55666701 9.84286378 10.37551968 10.92578125 17.6796875 C11.72754578 27.85592966 10.41683385 35.11610133 3.73828125 42.9921875 C-2.89864245 49.94207183 -9.33803845 52.53976967 -18.82421875 52.9921875 C-26.72925663 52.88647377 -32.84471682 49.5379254 -38.57421875 44.24609375 C-45.73334507 36.77002694 -46.61798078 28.29668529 -46.44140625 18.33984375 C-45.5923144 9.87602391 -40.84336418 4.63958173 -34.4609375 -0.65625 C-23.89545448 -8.02269151 -10.59662221 -6.74511922 0 0 Z " fill="#F9FBFB" transform="translate(297.07421875,750.3203125)"/>
<path d="M0 0 C6.42051327 6.14422069 8.65168387 12.57164297 8.875 21.375 C8.80210619 28.7828336 6.77711954 35.05221871 2.3125 41 C-5.41177695 48.5487252 -12.69573575 50.06357061 -23.26904297 50.140625 C-30.89328466 49.9597992 -35.97605223 47.27441602 -41.26953125 41.7890625 C-48.05598521 33.43396346 -49.37218143 25.31616309 -48.4375 14.6875 C-47.10484444 7.00513268 -41.65585211 0.84043669 -35.53515625 -3.734375 C-24.30145855 -10.51884013 -9.87757658 -8.1366308 0 0 Z " fill="#FAFBFB" transform="translate(299.4375,105.3125)"/>
<path d="M0 0 C-0.66 0.33 -1.32 0.66 -2 1 C-3.41854323 0.40570505 -4.81048768 -0.25245367 -6.1875 -0.9375 C-14.88932251 -4.56956505 -25.39867736 -4.45289629 -34.15234375 -0.90234375 C-40.30789912 2.10385771 -45.28590179 6.21268824 -49 12 C-49.84336631 14.68097639 -50.34545596 17.21248437 -50.7109375 19.99609375 C-51 22 -51 22 -52 23 C-52.81192762 36.91606179 -51.02485543 44.91077253 -41.9375 55.375 C-39.74820229 57.21118518 -37.69840796 58.10053068 -35 59 C-35 59.66 -35 60.32 -35 61 C-30.72918086 61.02897435 -26.45838691 61.04678996 -22.1875 61.0625 C-20.97255859 61.07087891 -19.75761719 61.07925781 -18.50585938 61.08789062 C-17.34248047 61.09111328 -16.17910156 61.09433594 -14.98046875 61.09765625 C-13.90692139 61.10289307 -12.83337402 61.10812988 -11.72729492 61.11352539 C-8.90500635 61.12194588 -8.90500635 61.12194588 -6 60 C-5.67 59.34 -5.34 58.68 -5 58 C-4.01 58 -3.02 58 -2 58 C-2 57.34 -2 56.68 -2 56 C-1.236875 55.7525 -0.47375 55.505 0.3125 55.25 C3.32704316 53.8478869 4.36527226 52.86077355 6 50 C6.71433121 47.35065178 6.71433121 47.35065178 7 45 C8.32 44.67 9.64 44.34 11 44 C10.14225285 50.40525469 6.17838167 54.41846376 1.2734375 58.40234375 C-2.47975979 61 -2.47975979 61 -5 61 C-5.495 62.485 -5.495 62.485 -6 64 C-7.65 64 -9.3 64 -11 64 C-11 64.66 -11 65.32 -11 66 C-25.58199798 66.82366934 -35.40916855 65.73471874 -47 56 C-50 52.5862069 -50 52.5862069 -50 49 C-50.99 49 -51.98 49 -53 49 C-54.49821059 45.62902617 -55 43.79557881 -55 40 C-55.66 40 -56.32 40 -57 40 C-57.85329665 17.453277 -57.85329665 17.453277 -51.25 7.3125 C-50.5075 6.549375 -49.765 5.78625 -49 5 C-48.5153125 4.43539062 -48.030625 3.87078125 -47.53125 3.2890625 C-36.01492546 -8.6818538 -13.29074935 -9.30352455 0 0 Z " fill="#6C272A" transform="translate(640,745)"/>
<path d="M0 0 C0.33 0 0.66 0 1 0 C1 114.84 1 229.68 1 348 C1.99 348.33 2.98 348.66 4 349 C2.68 349.99 1.36 350.98 0 352 C0 235.84 0 119.68 0 0 Z " fill="#EBEFEE" transform="translate(367,121)"/>
<path d="M0 0 C0 3 0 3 -1.3894043 4.72998047 C-2.02789307 5.35275879 -2.66638184 5.97553711 -3.32421875 6.6171875 C-4.02353516 7.30683594 -4.72285156 7.99648438 -5.44335938 8.70703125 C-6.18392578 9.42246094 -6.92449219 10.13789063 -7.6875 10.875 C-8.7693457 11.93654297 -8.7693457 11.93654297 -9.87304688 13.01953125 C-11.23317274 14.35357251 -12.59636359 15.6845014 -13.96362305 17.01123047 C-18.56793473 21.50790029 -23.08159154 26.09604354 -27.61381531 30.66511536 C-31.19137436 34.26930483 -34.77410766 37.86833117 -38.35717773 41.46704102 C-40.25177823 43.37064977 -42.14385016 45.27672285 -44.03393555 47.18481445 C-46.76146716 49.93646887 -49.49528651 52.68173427 -52.23046875 55.42578125 C-53.07941208 56.28504715 -53.92835541 57.14431305 -54.80302429 58.02961731 C-55.58756485 58.81430893 -56.37210541 59.59900055 -57.18041992 60.4074707 C-57.87149338 61.10298538 -58.56256683 61.79850006 -59.27458191 62.51509094 C-61 64 -61 64 -63 64 C-63.28875 64.598125 -63.5775 65.19625 -63.875 65.8125 C-65 68 -65 68 -67 71 C-67.33 69.68 -67.66 68.36 -68 67 C-67.15824219 66.22970459 -66.31648437 65.45940918 -65.44921875 64.66577148 C-52.19798969 52.4365226 -39.51966879 39.63675987 -26.79614258 26.86480713 C-23.76703057 23.82529889 -20.73493604 20.78876875 -17.703125 17.75195312 C-11.79923483 11.83747212 -5.89854538 5.9198114 0 0 Z " fill="#E5E8E5" transform="translate(630,433)"/>
<path d="M0 0 C0 4.3153922 -2.64721449 6.13611683 -5.5 9.0625 C-9.40188991 12.49017655 -9.40188991 12.49017655 -11 17 C-11.66 17 -12.32 17 -13 17 C-13.33 17.66 -13.66 18.32 -14 19 C-15.01857733 19.9323285 -16.06943864 20.82970787 -17.13696289 21.70556641 C-20.88941052 24.86269934 -24.35821611 28.2296606 -27.80859375 31.7109375 C-28.72597069 32.63043686 -28.72597069 32.63043686 -29.66188049 33.56851196 C-31.58947559 35.50164564 -33.51353928 37.43824987 -35.4375 39.375 C-36.75432404 40.69684699 -38.07137926 42.01846372 -39.38867188 43.33984375 C-42.59512373 46.55724299 -45.79841629 49.77775681 -49 53 C-49.66 52.67 -50.32 52.34 -51 52 C-42.40991211 43.40991211 -33.81982422 34.81982422 -25.22973633 26.22973633 C-24.6794426 25.67916061 -24.12914886 25.1285849 -23.56217957 24.56132507 C-22.1237196 23.12365192 -20.68235639 21.68888515 -19.24072266 20.25439453 C-16.59914693 17.59670111 -14.07765622 14.83875886 -11.5625 12.0625 C-7.80518994 7.93647899 -4.00013976 3.89202787 0 0 Z " fill="#3F4742" transform="translate(538,298)"/>
<path d="M0 0 C0.495 1.485 0.495 1.485 1 3 C-3.19119237 11.0696092 -10.87457755 16.48700618 -19.1328125 19.875 C-26.77043599 22.10135179 -34.58053253 21.58068434 -42 19 C-42 18.67 -42 18.34 -42 18 C-41.31897217 17.97494385 -40.63794434 17.9498877 -39.9362793 17.92407227 C-36.85316245 17.80809048 -33.77034954 17.68537384 -30.6875 17.5625 C-29.0797168 17.50352539 -29.0797168 17.50352539 -27.43945312 17.44335938 C-26.41142578 17.40146484 -25.38339844 17.35957031 -24.32421875 17.31640625 C-22.9024231 17.26141968 -22.9024231 17.26141968 -21.4519043 17.20532227 C-18.863829 17.08569813 -18.863829 17.08569813 -16 16 C-15.67 15.34 -15.34 14.68 -15 14 C-14.01 14 -13.02 14 -12 14 C-12 13.34 -12 12.68 -12 12 C-11.236875 11.7525 -10.47375 11.505 -9.6875 11.25 C-6.67295684 9.8478869 -5.63472774 8.86077355 -4 6 C-3.28566879 3.35065178 -3.28566879 3.35065178 -3 1 C-2.01 0.67 -1.02 0.34 0 0 Z " fill="#A52830" transform="translate(650,789)"/>
<path d="M0 0 C4.71714664 0.75474346 7.25287544 1.75290424 10.3125 5.5 C13.42647219 10.01733566 14.36040804 14.61860557 15 20 C15.66 20 16.32 20 17 20 C17.0582253 23.08325358 17.09367134 26.16636505 17.125 29.25 C17.14175781 30.12269531 17.15851562 30.99539063 17.17578125 31.89453125 C17.18222656 32.73886719 17.18867187 33.58320312 17.1953125 34.453125 C17.20578613 35.22817383 17.21625977 36.00322266 17.22705078 36.80175781 C16.96910895 39.29907849 16.32760406 40.87839667 15 43 C14.01 43.495 14.01 43.495 13 44 C11.86649466 46.01669827 11.86649466 46.01669827 11 48 C10.67 47.34 10.34 46.68 10 46 C10.59128831 44.39549906 11.24967725 42.81554943 11.9375 41.25 C15.1145018 32.8038245 15.47218789 24.00299582 12.25 15.5 C9.22590388 9.06057854 6.81724003 4.78887092 0 2 C0 1.34 0 0.68 0 0 Z " fill="#3C2221" transform="translate(640,746)"/>
<path d="M0 0 C5.47788385 4.71706665 7.74315664 10.22946991 10 17 C10.52573416 24.95678431 10.47785856 31.75446134 7 39 C5.54571228 36.09142455 6.26307565 33.83973981 6.625 30.625 C7.43045153 20.42610077 5.22094785 12.64156886 0 4 C0 2.68 0 1.36 0 0 Z " fill="#AD1D2A" transform="translate(645,750)"/>
<path d="M0 0 C0.66 0.33 1.32 0.66 2 1 C1.52949219 1.42410156 1.05898438 1.84820313 0.57421875 2.28515625 C-3.60060921 6.2179652 -6.12186782 9.46445251 -8 15 C-8.391875 16.010625 -8.78375 17.02125 -9.1875 18.0625 C-11.59537207 27.04649327 -10.28940015 37.12857441 -8 46 C-12.54582834 42.00216193 -12.81761033 36.83634556 -13.19140625 31.0234375 C-13.40730289 19.65288095 -11.20351503 11.9286012 -3.49609375 3.3203125 C-2.36449453 2.1790415 -1.18763246 1.08284136 0 0 Z " fill="#A82731" transform="translate(598,746)"/>
<path d="M0 0 C0.495 0.99 0.495 0.99 1 2 C-1.48900749 5.81129272 -3.82638474 9.00800294 -7.34375 11.90625 C-13.73622922 17.39210356 -19.56916249 23.46374409 -25.5 29.4375 C-26.71591114 30.6584369 -27.93205516 31.87914192 -29.1484375 33.09960938 C-32.10164966 36.06374013 -35.05169398 39.03098958 -38 42 C-38.66 41.67 -39.32 41.34 -40 41 C-39.12786865 40.13310547 -38.2557373 39.26621094 -37.35717773 38.37304688 C-34.09122598 35.12533208 -30.82869701 31.87419673 -27.56713867 28.62207031 C-26.16082925 27.22075867 -24.75361978 25.82034964 -23.34545898 24.42089844 C-21.30990344 22.39760962 -19.27771469 20.37098872 -17.24609375 18.34375 C-16.62600937 17.7288269 -16.00592499 17.11390381 -15.36705017 16.48034668 C-11.60083666 12.7146072 -8.03464573 8.82968753 -4.56947327 4.78479004 C-3.10498223 3.11938479 -1.58643656 1.54870379 0 0 Z " fill="#39413C" transform="translate(486,351)"/>
<path d="M0 0 C3.91041952 0.61100305 7.37580256 1.83200101 11.03515625 3.28125 C19.64301723 6.43005004 28.27690905 5.07869401 37 3 C36.67 3.66 36.34 4.32 36 5 C34.35 5 32.7 5 31 5 C31 5.66 31 6.32 31 7 C19.08808726 7.67284863 10.22515095 7.85758627 0 1 C0 0.67 0 0.34 0 0 Z " fill="#3D2220" transform="translate(598,804)"/>
<path d="M0 0 C2.53489266 2.53489266 5.05798305 5.06233177 7.5 7.6875 C9.96992246 9.97217828 11.82133822 11.00099201 15 12 C15 12.66 15 13.32 15 14 C15.99 14.33 16.98 14.66 18 15 C10.87305042 13.92015915 5.81248842 11.37866352 1 6 C0.67 5.67 0.34 5.34 0 5 C-0.04063832 3.33382885 -0.042721 1.66611905 0 0 Z " fill="#792A2D" transform="translate(590,792)"/>
<path d="M0 0 C0.66 0 1.32 0 2 0 C0.63055898 2.94956528 -0.87830409 5.52468811 -3 8 C-3.66 8 -4.32 8 -5 8 C-5 8.66 -5 9.32 -5 10 C-6.43090547 11.23124424 -7.86852221 12.45603997 -9.34765625 13.62890625 C-11.24052111 15.14575741 -11.24052111 15.14575741 -13.625 17.75 C-16.01314841 20.01245639 -16.9181369 20.40183248 -20 21 C-16.56417207 16.74611781 -13.03012316 13.08595099 -8.8046875 9.62109375 C-6.07645408 7.17040789 -3.79951924 4.3728679 -1.48046875 1.5390625 C-0.99191406 1.03117187 -0.50335937 0.52328125 0 0 Z " fill="#E6E8E6" transform="translate(671,392)"/>
<path d="M0 0 C-3.12010138 1.00288973 -4.8798953 0.86768626 -8 0 C-13.75530026 -0.32777254 -19.32896883 0.01373371 -25 1 C-24.34 0.67 -23.68 0.34 -23 0 C-23 -0.66 -23 -1.32 -23 -2 C-14.98564887 -4.32191481 -7.4933161 -3.39319974 0 0 Z " fill="#392321" transform="translate(633,740)"/>
<path d="M0 0 C0.66 0.33 1.32 0.66 2 1 C1.50072998 1.46897705 1.00145996 1.9379541 0.48706055 2.42114258 C-1.779924 4.55110144 -4.04621889 6.6817927 -6.3125 8.8125 C-7.49102539 9.91948242 -7.49102539 9.91948242 -8.69335938 11.04882812 C-9.45068359 11.76103516 -10.20800781 12.47324219 -10.98828125 13.20703125 C-11.68477783 13.8616333 -12.38127441 14.51623535 -13.09887695 15.19067383 C-14.75847489 16.77013708 -16.38891345 18.37128186 -18 20 C-18.66 19.67 -19.32 19.34 -20 19 C-17.60838068 16.57913227 -15.21096558 14.16408349 -12.8125 11.75 C-12.13896484 11.06808594 -11.46542969 10.38617188 -10.77148438 9.68359375 C-7.32936311 6.22468165 -3.90714016 2.94363181 0 0 Z " fill="#3F4641" transform="translate(559,278)"/>
<path d="M0 0 C0.33 0 0.66 0 1 0 C1.01417969 1.11117187 1.02835938 2.22234375 1.04296875 3.3671875 C1.26355673 11.50880621 1.61168395 18.06405592 5.94140625 25.21484375 C7 27 7 27 7 29 C6.01 29 5.02 29 4 29 C2.50178941 25.62902617 2 23.79557881 2 20 C1.34 20 0.68 20 0 20 C0 13.4 0 6.8 0 0 Z " fill="#2C2624" transform="translate(583,765)"/>
<path d="M0 0 C3.65786455 3.36128094 6.1784694 6.34497737 8 11 C7.67 11.99 7.34 12.98 7 14 C3.6985981 11.19380839 1.94330317 7.81959588 0 4 C0 2.68 0 1.36 0 0 Z " fill="#A7252E" transform="translate(645,750)"/>
<path d="M0 0 C0.33 0 0.66 0 1 0 C1.09796875 0.6290625 1.1959375 1.258125 1.296875 1.90625 C2.09273434 6.46185861 3.00740961 10.39630044 5.1875 14.5 C6.0846875 16.2325 6.0846875 16.2325 7 18 C6.67 18.66 6.34 19.32 6 20 C0.94789655 13.66156762 0.14642737 7.98694743 0 0 Z " fill="#C80E20" transform="translate(587,776)"/>
<path d="M0 0 C0 4.17561407 -1.83352478 5.53957787 -4.5 8.6875 C-5.3353125 9.68136719 -6.170625 10.67523438 -7.03125 11.69921875 C-8.00578125 12.83810547 -8.00578125 12.83810547 -9 14 C-9.66 13.67 -10.32 13.34 -11 13 C-9.92027262 11.5805831 -8.83604137 10.1645917 -7.75 8.75 C-6.84507812 7.56664063 -6.84507812 7.56664063 -5.921875 6.359375 C-4.06817005 4.08368843 -2.11101046 2.03628442 0 0 Z " fill="#454D47" transform="translate(219,63)"/>
<path d="M0 0 C0.99 0 1.98 0 3 0 C1.63029745 2.95012857 0.17390875 5.5652222 -2 8 C-2.99 8 -3.98 8 -5 8 C-5 7.34 -5 6.68 -5 6 C-4.34 6 -3.68 6 -3 6 C-2.67 5.01 -2.34 4.02 -2 3 C-1.34 3 -0.68 3 0 3 C0 2.01 0 1.02 0 0 Z " fill="#CF1020" transform="translate(644,793)"/>
<path d="M0 0 C6.75 1.625 6.75 1.625 9 5 C8.67 5.99 8.34 6.98 8 8 C7.34 7.01 6.68 6.02 6 5 C4.03247172 3.93753473 2.03412421 2.92862192 0 2 C0 1.34 0 0.68 0 0 Z " fill="#67282A" transform="translate(640,746)"/>
<path d="M0 0 C0.33 0.66 0.66 1.32 1 2 C-0.65 4.31 -2.3 6.62 -4 9 C-4.99 8.34 -5.98 7.68 -7 7 C-4.69 4.69 -2.38 2.38 0 0 Z " fill="#4C534F" transform="translate(486,351)"/>
<path d="M0 0 C0.66 0.33 1.32 0.66 2 1 C-0.31 3.31 -2.62 5.62 -5 8 C-5.99 7.67 -6.98 7.34 -8 7 C-5.36 4.69 -2.72 2.38 0 0 Z " fill="#424A45" transform="translate(228,55)"/>
<path d="M0 0 C-0.33 0.99 -0.66 1.98 -1 3 C-4.01490557 4.00496852 -6.04181692 4.10335303 -9.1875 4.0625 C-10.53908203 4.04896484 -10.53908203 4.04896484 -11.91796875 4.03515625 C-12.60503906 4.02355469 -13.29210937 4.01195312 -14 4 C-14 3.67 -14 3.34 -14 3 C-13.38511719 2.95101562 -12.77023437 2.90203125 -12.13671875 2.8515625 C-11.32847656 2.77679687 -10.52023437 2.70203125 -9.6875 2.625 C-8.88699219 2.55539062 -8.08648438 2.48578125 -7.26171875 2.4140625 C-4.40085313 1.89031163 -2.90947141 0 0 0 Z " fill="#CE0D1F" transform="translate(635,803)"/>
<path d="M0 0 C0.66 0.33 1.32 0.66 2 1 C1.071875 2.1446875 1.071875 2.1446875 0.125 3.3125 C-2.05597052 5.99625809 -2.05597052 5.99625809 -4 9 C-4.8125 7.3125 -4.8125 7.3125 -5 5 C-2.5625 2.25 -2.5625 2.25 0 0 Z " fill="#C9CDCA" transform="translate(567,495)"/>
<path d="M0 0 C5 7.5 5 7.5 5 10 C4.01 10 3.02 10 2 10 C0.39644899 6.49223216 -0.22036864 3.85645121 0 0 Z " fill="#3B2321" transform="translate(585,784)"/>
<path d="M0 0 C0.66 0 1.32 0 2 0 C0.55746343 3.36591866 -1.33264727 5.51047079 -4 8 C-4.66 7.34 -5.32 6.68 -6 6 C-4 4 -2 2 0 0 Z " fill="#D3D5D3" transform="translate(671,392)"/>
<path d="M0 0 C0.33 0.99 0.66 1.98 1 3 C-0.98 4.32 -2.96 5.64 -5 7 C-5.66 6.67 -6.32 6.34 -7 6 C-4.69 4.02 -2.38 2.04 0 0 Z " fill="#CA1221" transform="translate(602,745)"/>
<path d="M0 0 C0.33 0.99 0.66 1.98 1 3 C0.01 4.485 0.01 4.485 -1 6 C-1.66 6 -2.32 6 -3 6 C-3 4.35 -3 2.7 -3 1 C-2.01 0.67 -1.02 0.34 0 0 Z " fill="#B0222C" transform="translate(650,789)"/>
</svg>
