<?xml version="1.0" ?><svg  fill="#9e9e9e" id="Layer_3" style="enable-background:new 0 0 64 64;" version="1.0" viewBox="0 0 64 64" xml:space="preserve" xmlns="http://www.w3.org/2000/svg" xmlns:xlink="http://www.w3.org/1999/xlink"><g><path fill="#9e9e9e" d="M41.21,30.84l-13.97-8.07c-0.41-0.24-0.92-0.24-1.34,0c-0.41,0.24-0.67,0.68-0.67,1.16v16.13c0,0.48,0.26,0.92,0.67,1.16   c0.21,0.12,0.44,0.18,0.67,0.18c0.23,0,0.46-0.06,0.67-0.18l13.97-8.07c0.41-0.24,0.67-0.68,0.67-1.16   C41.88,31.52,41.62,31.08,41.21,30.84z M27.23,38.92V25.08L39.22,32L27.23,38.92z"/><path d="M60.6,17.86c-0.76-2.83-2.98-5.05-5.81-5.81c-4.57-1.23-22.05-1.24-22.8-1.24s-18.22,0.01-22.8,1.24   c-2.83,0.76-5.05,2.98-5.81,5.81C2.17,22.43,2.16,31.61,2.16,32s0.01,9.57,1.24,14.14c0.76,2.83,2.98,5.05,5.81,5.81   c4.57,1.23,22.05,1.24,22.8,1.24s18.22-0.01,22.8-1.24c2.83-0.76,5.05-2.98,5.81-5.81c1.23-4.57,1.24-13.75,1.24-14.14   S61.83,22.43,60.6,17.86z M58.67,45.63c-0.57,2.14-2.25,3.82-4.39,4.39c-4.32,1.16-22.1,1.17-22.28,1.17s-17.96-0.01-22.28-1.17   c-2.14-0.57-3.82-2.26-4.39-4.39C4.17,41.31,4.16,32.09,4.16,32s0.01-9.3,1.17-13.63c0.57-2.14,2.26-3.82,4.39-4.39   c4.32-1.16,22.1-1.17,22.28-1.17s17.96,0.01,22.28,1.17c2.14,0.57,3.82,2.25,4.39,4.39v0c1.16,4.32,1.17,13.53,1.17,13.63   S59.83,41.31,58.67,45.63z"/></g></svg>